<svg width="16" height="16" viewBox="0 0 16 16" fill="none" xmlns="http://www.w3.org/2000/svg">
  <g opacity="0.5">
    <path d="M11.942 3.35299L8.00001 7.29499L4.05801 3.35299C3.9632 3.26623 3.83857 3.21939 3.71009 3.22224C3.5816 3.22508 3.45917 3.27739 3.36829 3.36827C3.27742 3.45914 3.22511 3.58158 3.22226 3.71006C3.21941 3.83855 3.26625 3.96318 3.35301 4.05799L7.29301 7.99999L3.35201 11.941C3.30386 11.9869 3.26537 12.0419 3.23881 12.1029C3.21224 12.1639 3.19813 12.2295 3.1973 12.296C3.19648 12.3625 3.20896 12.4285 3.23401 12.4902C3.25906 12.5518 3.29617 12.6078 3.34317 12.6548C3.39017 12.7019 3.4461 12.7391 3.50767 12.7642C3.56925 12.7893 3.63523 12.8019 3.70174 12.8012C3.76824 12.8005 3.83393 12.7864 3.89495 12.76C3.95596 12.7335 4.01106 12.6951 4.05701 12.647L8.00001 8.70599L11.942 12.648C12.0368 12.7347 12.1615 12.7816 12.2899 12.7787C12.4184 12.7759 12.5409 12.7236 12.6317 12.6327C12.7226 12.5418 12.7749 12.4194 12.7778 12.2909C12.7806 12.1624 12.7338 12.0378 12.647 11.943L8.70501 8.00099L12.647 4.05799C12.6952 4.0121 12.7337 3.95705 12.7602 3.89608C12.7868 3.83511 12.8009 3.76944 12.8017 3.70293C12.8025 3.63643 12.7901 3.57043 12.765 3.50882C12.74 3.4472 12.7029 3.39122 12.6559 3.34416C12.6089 3.29709 12.5529 3.2599 12.4914 3.23476C12.4298 3.20963 12.3638 3.19705 12.2973 3.19778C12.2308 3.19851 12.1651 3.21253 12.1041 3.23901C12.0431 3.26549 11.988 3.3039 11.942 3.35199V3.35299Z" fill="white" />
  </g>
</svg>
