<svg width="24" height="32" viewBox="0 0 24 32" fill="none" xmlns="http://www.w3.org/2000/svg">
  <path d="M14 8.5V0H1.5C0.66875 0 0 0.66875 0 1.5V30.5C0 31.3312 0.66875 32 1.5 32H22.5C23.3312 32 24 31.3312 24 30.5V10H15.5C14.675 10 14 9.325 14 8.5ZM18.0737 22.0006H14V27.0006C14 27.5531 13.5525 28.0006 13 28.0006H11C10.4475 28.0006 10 27.5531 10 27.0006V22.0006H5.92625C5.03375 22.0006 4.58813 20.92 5.22188 20.2906L11.2481 14.3094C11.6637 13.8962 12.335 13.8962 12.7506 14.3094L18.7769 20.2906C19.4112 20.92 18.9662 22.0006 18.0737 22.0006ZM23.5625 6.5625L17.4438 0.4375C17.1625 0.15625 16.7812 0 16.3813 0H16V8H24V7.61875C24 7.225 23.8438 6.84375 23.5625 6.5625Z" fill="#A3A0FF" />
</svg>
