<svg width="32" height="29" viewBox="0 0 32 29" fill="none" xmlns="http://www.w3.org/2000/svg">
  <path d="M30.4445 28.5261H1.55858C1.28499 28.5261 1.01622 28.454 0.779285 28.3172C0.54235 28.1804 0.345599 27.9837 0.208806 27.7467C0.0720129 27.5098 -1.7376e-06 27.241 0 26.9674C1.73766e-06 26.6938 0.0720197 26.4251 0.208816 26.1881L14.651 1.25018C14.788 1.01399 14.9847 0.817937 15.2213 0.681652C15.4579 0.545367 15.7262 0.473633 15.9992 0.473633C16.2723 0.473633 16.5405 0.545367 16.7771 0.681652C17.0138 0.817937 17.2104 1.01399 17.3474 1.25018L31.7912 26.1881C31.9279 26.425 31.9999 26.6936 32 26.9671C32.0001 27.2405 31.9282 27.5092 31.7916 27.7461C31.655 27.983 31.4584 28.1797 31.2217 28.3167C30.985 28.4536 30.7164 28.5258 30.443 28.5261H30.4445ZM16.0023 5.14674L4.26435 25.4088H27.7434L16.0023 5.14674ZM17.5532 19.1759H14.4359V11.3812H17.5532V19.1759Z" fill="white" />
  <path d="M14.4437 20.7363H17.561V23.8536H14.4437V20.7363Z" fill="white" />
</svg>
