<svg width="119" height="30" viewBox="0 0 119 30" fill="none" xmlns="http://www.w3.org/2000/svg">
  <path d="M45.7741 24.6226C44.2394 24.6226 42.8888 24.3055 41.7224 23.6711C40.5765 23.0368 39.6761 22.1261 39.0213 20.9393C38.3665 19.732 38.0391 18.2995 38.0391 16.642C38.0391 14.9845 38.3562 13.5623 38.9906 12.3754C39.6454 11.1681 40.5356 10.2473 41.661 9.61292C42.807 8.97856 44.1166 8.66138 45.59 8.66138C47.0838 8.66138 48.3525 8.96833 49.3961 9.58222C50.4397 10.1961 51.2378 11.0351 51.7903 12.0992C52.3428 13.1633 52.6191 14.3706 52.6191 15.7212C52.6191 16.11 52.6088 16.4681 52.5884 16.7955C52.5679 17.1229 52.5372 17.3991 52.4963 17.6242H41.262C41.4053 19.0567 41.8657 20.1514 42.6433 20.9086C43.4413 21.6453 44.4645 22.0136 45.7127 22.0136C46.7359 22.0136 47.5647 21.8192 48.199 21.4304C48.8334 21.0416 49.3347 20.4993 49.7031 19.8036L52.3121 21.0314C51.7801 22.1568 50.9309 23.0368 49.7645 23.6711C48.6185 24.3055 47.2884 24.6226 45.7741 24.6226ZM45.5286 11.2704C44.4031 11.2704 43.472 11.5978 42.7354 12.2527C42.0191 12.9075 41.5587 13.859 41.3541 15.1073H49.4268C49.345 13.8795 48.9562 12.9382 48.2604 12.2834C47.5647 11.6081 46.6541 11.2704 45.5286 11.2704Z" fill="#F1F1F1"/>
  <path d="M64.6332 8.96833V11.5467H59.3537V19.7115C59.3537 20.4482 59.5583 21.0007 59.9676 21.369C60.3768 21.7169 60.9089 21.8908 61.5637 21.8908C62.1367 21.8908 62.6176 21.809 63.0064 21.6453C63.4156 21.4611 63.7942 21.2155 64.1421 20.9086L64.8787 23.3028C64.4081 23.712 63.8249 24.0394 63.1291 24.285C62.4539 24.5101 61.6967 24.6226 60.8577 24.6226C59.5072 24.6226 58.3715 24.2952 57.4506 23.6404C56.5298 22.9651 56.0693 21.8397 56.0693 20.264V11.5467H53.1227V8.96833H56.0693V5.37704L59.3537 4.4562V8.96833H64.6332Z" fill="#F1F1F1"/>
  <path d="M66.4667 24.3157V2.06201H69.751V11.4239C70.2626 10.4621 70.9481 9.76639 71.8076 9.33666C72.6875 8.88648 73.6595 8.66138 74.7236 8.66138C75.8081 8.66138 76.7801 8.87624 77.6396 9.30597C78.5195 9.71523 79.2153 10.3496 79.7268 11.209C80.2384 12.048 80.4942 13.1019 80.4942 14.3706V24.3157H77.2099V15.4142C77.2099 13.8795 76.8927 12.8256 76.2583 12.2527C75.6444 11.6592 74.8668 11.3625 73.9255 11.3625C73.2502 11.3625 72.5954 11.5262 71.9611 11.8536C71.3267 12.1606 70.7947 12.6722 70.3649 13.3884C69.9557 14.0841 69.751 15.0254 69.751 16.2123V24.3157H66.4667Z" fill="#F1F1F1"/>
  <path d="M92.4388 3.75022C94.3419 3.75022 95.9789 4.17995 97.3499 5.0394C98.7414 5.87839 99.8157 7.07549 100.573 8.63069C101.33 10.1859 101.709 12.0378 101.709 14.1864C101.709 16.3351 101.33 18.187 100.573 19.7422C99.8157 21.2974 98.7414 22.5047 97.3499 23.3642C95.9789 24.2031 94.3419 24.6226 92.4388 24.6226C90.5357 24.6226 88.8884 24.2031 87.4969 23.3642C86.1259 22.5047 85.0618 21.2974 84.3047 19.7422C83.5475 18.187 83.169 16.3351 83.169 14.1864C83.169 12.0378 83.5475 10.1859 84.3047 8.63069C85.0618 7.07549 86.1259 5.87839 87.4969 5.0394C88.8884 4.17995 90.5357 3.75022 92.4388 3.75022ZM92.4388 4.51759C90.7199 4.51759 89.2363 4.91662 87.988 5.71469C86.7398 6.49229 85.7678 7.60753 85.072 9.06041C84.3968 10.4928 84.0591 12.2015 84.0591 14.1864C84.0591 16.1714 84.3968 17.8903 85.072 19.3432C85.7678 20.7756 86.7398 21.8908 87.988 22.6889C89.2363 23.4665 90.7199 23.8553 92.4388 23.8553C94.1577 23.8553 95.6413 23.4665 96.8895 22.6889C98.1582 21.8908 99.1302 20.7756 99.8055 19.3432C100.481 17.8903 100.818 16.1714 100.818 14.1864C100.818 12.2015 100.481 10.4928 99.8055 9.06041C99.1302 7.60753 98.1582 6.49229 96.8895 5.71469C95.6413 4.91662 94.1577 4.51759 92.4388 4.51759Z" fill="#F1F1F1"/>
  <path d="M111.154 3.75022C113.037 3.75022 114.612 4.12879 115.881 4.88593C117.17 5.6226 118.081 6.789 118.613 8.38513L117.907 8.90694C117.436 7.39266 116.618 6.28765 115.451 5.59191C114.306 4.8757 112.853 4.51759 111.093 4.51759C109.804 4.51759 108.688 4.73245 107.747 5.16218C106.806 5.57144 106.079 6.13418 105.568 6.85039C105.056 7.5666 104.8 8.36466 104.8 9.24458C104.8 10.3496 105.169 11.25 105.905 11.9457C106.642 12.621 107.931 13.153 109.773 13.5418L113.456 14.3092C115.441 14.7389 116.853 15.3324 117.692 16.0895C118.531 16.8466 118.951 17.8493 118.951 19.0976C118.951 20.2026 118.633 21.1746 117.999 22.0136C117.385 22.8321 116.516 23.4767 115.39 23.9474C114.285 24.3976 112.996 24.6226 111.523 24.6226C109.394 24.6226 107.583 24.1929 106.09 23.3335C104.596 22.4536 103.644 21.1439 103.235 19.4045L104.033 18.852C104.36 20.53 105.21 21.7885 106.581 22.6275C107.952 23.446 109.609 23.8553 111.553 23.8553C112.781 23.8553 113.886 23.6813 114.868 23.3335C115.85 22.9651 116.628 22.4331 117.201 21.7373C117.794 21.0211 118.091 20.1617 118.091 19.159C118.091 18.1563 117.723 17.3378 116.986 16.7034C116.25 16.0486 114.991 15.537 113.211 15.1687L109.466 14.3399C107.461 13.9306 106.028 13.327 105.169 12.5289C104.33 11.7104 103.91 10.6361 103.91 9.30597C103.91 8.32374 104.197 7.41313 104.77 6.57414C105.363 5.73515 106.192 5.05986 107.256 4.54828C108.34 4.01624 109.64 3.75022 111.154 3.75022Z" fill="#F1F1F1"/>
  <path fill-rule="evenodd" clip-rule="evenodd" d="M0 2.36842C0 1.06038 1.06038 0 2.36842 0H26.8421C28.1501 0 29.2105 1.06038 29.2105 2.36842C29.2105 3.67646 28.1501 4.73684 26.8421 4.73684H2.36842C1.06038 4.73684 0 3.67646 0 2.36842ZM3.47368 15C3.47368 13.692 4.53406 12.6316 5.8421 12.6316H23.2105C24.5186 12.6316 25.5789 13.692 25.5789 15C25.5789 16.308 24.5186 17.3684 23.2105 17.3684H5.8421C4.53406 17.3684 3.47368 16.308 3.47368 15ZM0 27.6316C0 26.3235 1.06038 25.2632 2.36842 25.2632H26.8421C28.1501 25.2632 29.2105 26.3235 29.2105 27.6316C29.2105 28.9396 28.1501 30 26.8421 30H2.36842C1.06038 30 0 28.9396 0 27.6316Z" fill="#5550F2"/>
</svg>
