<svg width="120" height="120" viewBox="0 0 120 120" fill="none" xmlns="http://www.w3.org/2000/svg">
  <g opacity="0.5">
    <path d="M90 40C78.95 40 70 48.95 70 60C70 71.05 78.95 80 90 80C101.05 80 110 71.05 110 60C110 48.95 101.05 40 90 40ZM77.5 60C77.5 56.6848 78.817 53.5054 81.1612 51.1612C83.5054 48.817 86.6848 47.5 90 47.5C92.1 47.5 94 48.05 95.75 48.95L78.95 65.75C78.05 64 77.5 62.1 77.5 60ZM90 72.5C87.9 72.5 86 71.95 84.25 71.05L101.05 54.25C101.95 56 102.5 57.9 102.5 60C102.5 61.6415 102.177 63.267 101.548 64.7835C100.92 66.3001 99.9996 67.6781 98.8388 68.8388C97.6781 69.9996 96.3001 70.9203 94.7835 71.5485C93.267 72.1767 91.6415 72.5 90 72.5Z" fill="#5550F2"/>
    <path d="M85 90H35V30H85V35H95V15C95 9.5 90.5 5 85 5H35C29.5 5 25 9.5 25 15V105C25 110.5 29.5 115 35 115H85C90.5 115 95 110.5 95 105V85H85V90Z" fill="#5550F2"/>
  </g>
</svg>
